<?xml version="1.0" encoding="UTF-8"?>
<svg id="Layer_1" data-name="Layer 1" xmlns="http://www.w3.org/2000/svg" viewBox="0 0 2376.82 2487.57">
  <defs>
    <style>
      .cls-1 {
        fill: #c00;
      }

      .cls-1, .cls-2 {
        fill-rule: evenodd;
      }
    </style>
  </defs>
  <path class="cls-2" d="M777.64,1251.7c-70.97-42.99,154.33-195.67,177.25-212.78,7.14,54.41-12.29,96.86-28.28,111.75,21.87-8.61,37.07-25.63,60.63-59.9,0,0-17.18,66.65-70.96,85.75,18.65-1.66,31.22-5.76,40.73-11.1,0,0-74.5,56.83-161.81,52.94-16.69-.74-32.46,7.92-17.57,33.36m404.71,440.55c70.33-24.47,152.13-89.62,180.4-123.56-121.67,101.55-201.86,117.85-280.49,138.44-166.32,43.55-141.29,65.97-252.71,164.4-14.5,12.81-27.78,19.14-40.95,13.42-11.92,7.66-21.4,13.7-28.52,18.21-70.5,44.67-162.27-140.17-183.52-191.27,45.89,38.26,92.73,56.34,92.73,56.34-13.59-19.47-24.79-40.45-30.29-65.01,85.76,54.54,80.08,45.2,175.23,4.75,14.99-6.37,30.15-13.45,44.71-20.92-6.67-10.24-11.25-19.43-11.25-19.43,11.08,5.03,24.12,6.34,35.9,6.06,32.45-18.62,59.01-38.36,69.42-54.87,27.73-43.98,48.71-69.06,82.86-82.5-13.95-12.5-25.68-28.65-25.68-28.65,23.19,8.18,48.95,10.71,66.55,11.4,16.33-12.62,29.48-33.09,40.45-56.62-19.96-21.97-23.4-39.6-23.4-39.6,8.87,5.43,21.67,10.03,34.28,13.67,5.3-13.92,10.04-28.26,14.39-42.21,18.37-58.92,89.52-129.17,89.52-129.17-99.38,62.43-107.85,100.1-107.85,100.1-129.41-23.95-139.43,55.3-139.43,55.3-15.74-15.38-64.76-18.99-64.76-18.99,2.16,42.62,42.83,79.93,42.83,79.93-38.18-6.61-65.33-42.16-65.33-42.16-40.31-6.2-67.59-8.78-67.59-8.78,10.97,5.54,28.41,18.39,28.41,18.39-40.33-9.71-110.28,22.38-110.28,22.38,21.72,1.03,51.34,13.26,51.34,13.26-78.85-7.9-172.75,42.05-172.75,42.05,13.46,28.43,46.38,55.29,46.38,55.29-49.18-6.66-79.61-36.51-79.61-36.51,.23,56.25,56.76,118.43,56.76,118.43-108.69-38.83-124.77-118.72-124.77-118.72-11.77,46.42,23.31,116.77,23.31,116.77-64.57-41.96-69.99-112.1-69.99-112.1-15.18,49.15,29.97,130.97,29.97,130.97-43.23-15.09-103.81-88.79-122.63-140.73-15.71-88.04-12.88-160.36,58.84-225.43,85.23-27.88,115.4-166.23,115.4-166.23,0,0,11.6,81.29,12.32,100.94,0,0,28.49-95.64,108.33-186.89,0,0-7.48,70.4-8.66,85.83,0,0,50.74-84.24,83.72-167.44,32.97-83.21,125.03-185.51,125.03-185.51,0,0-39.73,84.72-45.47,120.25,0,0,65.36-136.56,177.33-205.04,0,0-55.39,78.94-68.34,110.69C1219.69,491.59,1464.97,431.41,1513.38,0c26.29,594.54-185.83,564.58-392.74,831.47,229.04-238.73,451.56-288.86,560.88-300.39-120.76,46.74-208.86,95.25-271.27,149.01-86.62,74.62-67.5,105.88-186.47,174.83,122.05-45.82,141.77-134.16,216.51-169.12,302.39-141.47,500.59-196.17,590.07-582.01,0,0,45.33,519.6-321.35,701.46,25.77-3.45,153.68-35.44,302.83-153.61,0,0-120.65,160.57-251.51,192.25,0,0,424.68-34.89,616.5,222.51-46.03-36-193.36-166.06-608-138.08,0,0,433.84,31.19,532.63,284.03-45.75-76.78-205.99-166.24-485.04-164.96,0,0,219.96,20.72,339.88,122.6,0,0-141.71-48.65-255.09-53.47,92.88,25.81,239.67,129.84,288.38,272.35-66.22-81.68-138.34-153.29-301.76-207.37,0,0,228.73,128.38,267.63,368.63-52.5-66.42-127.98-108.79-210.01-126.68,56.8,31.67,109.34,73.74,150.94,129.55-118.82-92.93-265.57-164.24-432.66-94.77,171.03-50.19,317.93,8.46,403.24,182.98-23.41-26.94-89-104.88-214.29-152.75,68.83,55.93,118.67,140.67,130.99,240.55-12.29-30.46-44.28-113.4-129.46-193.51,57.33,89.71,74.56,199.5,54.27,311.41-9.18-67.32-60.4-139.61-128.75-197.51,42.67,54.09,60.08,108.21,68.22,174.2-40.47-140.23-188.01-303.75-390.76-278.7,184.27-11.17,310.73,117.38,344.09,279.12-14.87-29.69-54.13-111.24-147.67-184.86,47.5,65.74,73.94,150.52,67.65,241.66-6.81-35.03-24.64-135.33-109.21-239.42,31.64,82.85,32.43,181.15-6.84,273.81,4.64-32.87,18.65-122.22-16.45-235.91,13.49,91.38,17.41,214.11-32.31,306.75,6.54-123.34-139.3-318.73-374.08-293.81Z"/>
  <path class="cls-1" d="M625.12,527.91l98.75-171.03c-20.15,3.45-40.25,7.24-60.28,11.35l-101.24,175.35c20.98-5.48,41.94-10.71,62.77-15.67m-191.38,52.35l105.27-182.34C353.88,447.96,174.21,521.85,.72,601.1c-6.21,163.31,28.53,386.93,77.22,595.44l93.36-161.71c-18.73-104.77-29.48-209.25-31.97-311.12-17.08,3.37-65.91,21.47-85.76,32.49,65.91-61.13,214.8-124.59,380.17-175.94Zm-216.92,654.86c-5.9-21.33-11.47-42.71-16.7-64.12l-89.63,155.25c5.73,21.33,11.55,42.31,17.44,62.83l88.9-153.96Zm18.04,61.8l-88.71,153.65c7.6,24.82,15.24,48.77,22.9,71.65,5.26,12.65,43.26,47.2,84.2,64.34-26.82-6.03-52.87-18.2-71.67-27.78,91.09,214.91,201.44,395.11,343.38,552.27l72.01-124.71c-163.31-199.11-285.25-439.58-362.11-689.41Zm426.7,763.61l-69.65,120.63c11.32,11.21,22.82,22.3,34.51,33.28l68.59-118.8c-11.31-11.52-22.44-23.24-33.45-35.1Zm67.67,68.87l-67.65,117.19c97.1,86.52,206.87,166.02,332.03,240.98,205.91-123.35,370.26-258.97,504.91-418l4.58-86.34c1.8-34.02-12.34-70.73-32.49-102.87-124.76,177.8-278.97,330.46-460.46,439.18l-16.54,65.01-16.57-65.01c-89.29-53.49-171.99-117.62-247.81-190.14Zm-42.29-1615.51c119.45-25.72,230.08-41.3,306.65-41.3,53.23,0,122.88,7.53,200.52,20.75,42.59-40.29,84.33-81.91,120.79-127.17-179.03-36.1-350.21-43.17-532.08-18.36l-95.89,166.08Z"/>
</svg>